<svg xmlns="http://www.w3.org/2000/svg" version="1.1" xmlns:xlink="http://www.w3.org/1999/xlink" xmlns:svgjs="http://svgjs.dev/svgjs" width="1500" height="1500" viewBox="0 0 1500 1500"><rect width="1500" height="1500" fill="#000000"></rect><g transform="matrix(0.6666666666666666,0,0,0.6666666666666666,249.39393939393938,606.3517440692161)"><svg viewBox="0 0 396 113" data-background-color="#1c1c1c" preserveAspectRatio="xMidYMid meet" height="428" width="1500" xmlns="http://www.w3.org/2000/svg" xmlns:xlink="http://www.w3.org/1999/xlink"><g id="tight-bounds" transform="matrix(1,0,0,1,0.2400000000000091,0.38873686978476485)"><svg viewBox="0 0 395.52 112.22252626043048" height="112.22252626043048" width="395.52"><g><svg viewBox="0 0 658.3420562744888 186.79411584397658" height="112.22252626043048" width="395.52"><g><rect width="12.189063775931515" height="135.83797859855022" x="218.7244485825062" y="25.47806862271318" fill="#ffffff" opacity="1" stroke-width="0" stroke="transparent" fill-opacity="1" class="rect-yte-0" data-fill-palette-color="primary" rx="1%" id="yte-0" data-palette-color="#ff4405"></rect></g><g transform="matrix(1,0,0,1,262.8220562744888,25.815974042112558)"><svg viewBox="0 0 395.52 135.16216775975147" height="135.16216775975147" width="395.52"><g id="textblocktransform"><svg viewBox="0 0 395.52 135.16216775975147" height="135.16216775975147" width="395.52" id="textblock"><g><svg viewBox="0 0 395.52 135.16216775975147" height="135.16216775975147" width="395.52"><g transform="matrix(1,0,0,1,0,0)"><svg width="395.52" viewBox="2.15 -37.35 144.84 49.5" height="135.16216775975147" data-palette-color="#ff4405"><g class="wordmark-text-0" data-fill-palette-color="primary" id="text-0"><path d="M20.6 0.35Q14.9 0.35 10.73-2.2 6.55-4.75 4.35-9.03 2.15-13.3 2.15-18.45L2.15-18.45Q2.15-23.9 4.53-28.2 6.9-32.5 11.2-34.93 15.5-37.35 20.95-37.35L20.95-37.35Q23.4-37.35 25.53-36.83 27.65-36.3 29.05-35.63 30.45-34.95 30.9-34.5L30.9-34.5 28.45-29.5Q25.4-32.2 20.5-32.2L20.5-32.2Q17.05-32.2 14.25-30.5 11.45-28.8 9.85-25.65 8.25-22.5 8.25-18.35L8.25-18.35Q8.25-14.55 9.68-11.45 11.1-8.35 13.85-6.55 16.6-4.75 20.4-4.75L20.4-4.75Q24.8-4.75 28.9-7.25L28.9-7.25 30.55-2.5Q29.45-1.5 26.53-0.58 23.6 0.35 20.6 0.35L20.6 0.35ZM44.45 0L32.35-22.95 38.5-22.95 43.45-12.6 45.05-8.45 46.65-12.6 51.55-22.95 57.55-22.95 45.5 0 44.45 0ZM71.15 0.5Q68.05 0.5 65.42-0.98 62.8-2.45 61.22-5.18 59.65-7.9 59.65-11.55L59.65-11.55Q59.65-15.15 61.02-17.85 62.4-20.55 64.95-22.05 67.5-23.55 70.95-23.55L70.95-23.55Q72.95-23.55 74.7-22.85 76.45-22.15 77.65-21.13 78.85-20.1 79.25-19.1L79.25-19.1 79.35-22.95 84.5-22.95 84.5 0 79.4 0 79.3-4.05Q78.45-2.25 76.2-0.88 73.95 0.5 71.15 0.5L71.15 0.5ZM72.05-4Q74.9-4 76.85-5.98 78.8-7.95 78.8-11.15L78.8-11.15 78.8-11.5Q78.8-13.65 77.9-15.35 77-17.05 75.45-18 73.9-18.95 72.05-18.95L72.05-18.95Q68.85-18.95 67.1-16.88 65.35-14.8 65.35-11.5L65.35-11.5Q65.35-8.15 67.07-6.08 68.8-4 72.05-4L72.05-4ZM91.84 12.15L91.84-22.95 97.04-22.95 97.04-18.7Q99.79-23.55 105.64-23.55L105.64-23.55Q110.49-23.55 113.49-20.48 116.49-17.4 116.49-11.6L116.49-11.6Q116.49-8 115.02-5.25 113.54-2.5 111.02-1 108.49 0.5 105.39 0.5L105.39 0.5Q102.49 0.5 100.37-0.53 98.24-1.55 97.04-3.45L97.04-3.45 97.09 12.15 91.84 12.15ZM104.14-4.05Q107.39-4.05 109.14-6.13 110.89-8.2 110.89-11.45L110.89-11.45Q110.89-14.85 109.17-16.88 107.44-18.9 104.14-18.9L104.14-18.9Q102.34-18.9 100.77-18.03 99.19-17.15 98.27-15.53 97.34-13.9 97.34-11.75L97.34-11.75 97.34-11.4Q97.34-9.25 98.27-7.58 99.19-5.9 100.74-4.98 102.29-4.05 104.14-4.05L104.14-4.05ZM122.34 12.15L122.34-22.95 127.54-22.95 127.54-18.7Q130.29-23.55 136.14-23.55L136.14-23.55Q140.99-23.55 143.99-20.48 146.99-17.4 146.99-11.6L146.99-11.6Q146.99-8 145.52-5.25 144.04-2.5 141.52-1 138.99 0.5 135.89 0.5L135.89 0.5Q132.99 0.5 130.87-0.53 128.74-1.55 127.54-3.45L127.54-3.45 127.59 12.15 122.34 12.15ZM134.64-4.05Q137.89-4.05 139.64-6.13 141.39-8.2 141.39-11.45L141.39-11.45Q141.39-14.85 139.67-16.88 137.94-18.9 134.64-18.9L134.64-18.9Q132.84-18.9 131.27-18.03 129.69-17.15 128.77-15.53 127.84-13.9 127.84-11.75L127.84-11.75 127.84-11.4Q127.84-9.25 128.77-7.58 129.69-5.9 131.24-4.98 132.79-4.05 134.64-4.05L134.64-4.05Z" fill="#ffffff" data-fill-palette-color="primary"></path></g></svg></g></svg></g></svg></g></svg></g><g><svg viewBox="0 0 186.8159046664551 186.79411584397658" height="186.79411584397658" width="186.8159046664551"><g><svg xmlns="http://www.w3.org/2000/svg" xmlns:xlink="http://www.w3.org/1999/xlink" version="1.1" x="0" y="0" viewBox="0 0 87.88325005091305 87.873" enable-background="new 0 0 87.884 87.873" xml:space="preserve" id="icon-0" width="186.8159046664551" height="186.79411584397658" class="icon-icon-0" data-fill-palette-color="accent"><path fill="#ffffff" d="M0 80.195L7.678 87.873 24.09 71.46 16.414 63.783zM76.833 11.068C69.696 3.929 60.207 0 50.112 0S30.528 3.929 23.393 11.068C16.256 18.206 12.324 27.695 12.324 37.789 12.324 47.882 16.256 57.373 23.393 64.51A38 38 0 0 0 30.111 69.854C29.781 72.312 29.651 74.905 29.648 77.566 29.709 78.424 30.186 78.671 30.388 78.833 30.817 79.104 31.204 79.225 31.66 79.374 32.329 79.586 33.091 79.78 33.649 79.96 33.738 79.987 33.822 80.016 33.897 80.043 34.162 83.31 35.773 85.538 38.152 86.525 40.63 87.591 43.673 87.635 47.149 87.647 48.003 87.647 48.886 87.644 49.793 87.644 53.941 87.635 57.603 87.671 60.54 86.701 62.005 86.21 63.316 85.419 64.257 84.19 65.102 83.095 65.612 81.706 65.796 80.045A27 27 0 0 1 67.396 79.548C67.851 79.412 68.289 79.276 68.692 79.105 68.894 79.014 69.088 78.924 69.313 78.754 69.507 78.595 69.906 78.291 69.938 77.567 69.936 75.015 69.843 72.544 69.586 70.191A38 38 0 0 0 76.837 64.509C91.566 49.775 91.566 25.8 76.833 11.068M34.837 77.737C34.232 77.508 33.582 77.353 32.943 77.156 32.643 77.07 32.359 76.983 32.141 76.907A57 57 0 0 1 32.455 71.216C33.431 71.733 34.429 72.204 35.445 72.633L34.752 77.681zM63.358 79.289C63.257 80.864 62.86 81.913 62.282 82.667 61.428 83.786 59.979 84.446 57.807 84.795 55.655 85.145 52.898 85.153 49.792 85.151 48.877 85.151 47.993 85.155 47.148 85.155 43.716 85.169 40.892 85.027 39.154 84.242 37.462 83.439 36.554 82.364 36.348 79.3 36.12 77.545 36.065 75.139 36.079 72.89A37.7 37.7 0 0 0 50.111 75.578C54.781 75.578 59.317 74.727 63.555 73.116 63.469 76.111 63.38 79.057 63.358 79.289M50.114 65.734A27.74 27.74 0 0 1 35.235 61.446C36.168 59.791 37.342 58.379 38.818 57.275A20 20 0 0 0 41.599 58.726 6.65 6.65 0 0 0 42.661 61.397C43.753 63.046 46.047 64.586 49.849 64.558H49.963C53.648 64.558 55.886 62.979 56.928 61.3A7 7 0 0 0 57.934 58.631 20 20 0 0 0 60.813 57.057C62.497 58.248 63.759 59.779 64.721 61.619 60.369 64.298 55.354 65.734 50.114 65.734M49.615 57.879C49.511 57.878 49.408 57.873 49.305 57.871 49.098 57.868 48.893 57.855 48.687 57.847 39.831 57.323 32.732 50.329 32.042 41.518L35.517 36.343S39.286 39.072 47.266 40.855C55.245 42.639 62.76 40.77 62.76 40.77S64.882 44.726 66.437 46.064A17.8 17.8 0 0 1 60.708 54.042L60.639 54 59.971 54.486A17.63 17.63 0 0 1 49.615 57.879M54.988 59.676A4 4 0 0 1 54.205 60.704C53.437 61.413 52.192 62.058 49.85 62.067 46.651 62.039 45.411 60.962 44.719 59.996 44.659 59.91 44.612 59.821 44.561 59.734 45.865 60.068 47.217 60.273 48.606 60.342 48.775 60.35 48.948 60.353 49.118 60.357 49.267 60.361 49.415 60.373 49.565 60.373 49.583 60.373 49.6 60.369 49.617 60.369 49.652 60.37 49.686 60.373 49.721 60.373 51.543 60.373 53.308 60.128 54.988 59.676M65.589 77.484C65.474 77.52 65.364 77.557 65.255 77.592L64.586 72.719A37 37 0 0 0 67.208 71.499 67 67 0 0 1 67.442 76.916C66.983 77.083 66.246 77.283 65.589 77.484M66.794 60.216C65.805 58.408 64.524 56.806 62.88 55.502 67.206 51.792 69.951 46.29 69.952 40.143 69.951 28.969 60.894 19.914 49.72 19.913 38.548 19.915 29.493 28.97 29.491 40.143 29.492 46.406 32.338 52 36.804 55.711 35.325 56.936 34.139 58.391 33.185 60.022A28 28 0 0 1 30.353 57.55C19.456 46.653 19.456 28.924 30.353 18.029 35.63 12.75 42.649 9.845 50.113 9.845S64.594 12.75 69.876 18.028C75.154 23.306 78.062 30.323 78.062 37.788 78.062 45.255 75.155 52.272 69.876 57.551A28 28 0 0 1 66.794 60.216M45.403 49.406C46.531 49.406 47.445 47.926 47.445 46.097S46.531 42.787 45.403 42.787 43.361 44.268 43.361 46.097 44.276 49.406 45.403 49.406M61.003 50.812A0.625 0.625 0 0 0 60.088 49.962C60.087 49.962 59.863 50.208 59.402 50.602 58.017 51.79 54.658 54.172 50.159 54.165 47.134 54.165 44.588 53.271 42.799 52.371A17 17 0 0 1 40.724 51.14C40.248 50.807 40.016 50.6 40.015 50.6A0.62 0.62 0 0 0 39.136 50.66C38.909 50.918 38.936 51.31 39.196 51.539 39.252 51.581 43.609 55.402 50.163 55.413 56.764 55.397 60.949 50.856 61.003 50.812M54.416 49.406C55.544 49.406 56.46 47.926 56.46 46.097S55.544 42.787 54.416 42.787C53.289 42.787 52.376 44.268 52.376 46.097S53.288 49.406 54.416 49.406" data-fill-palette-color="accent"></path></svg></g></svg></g></svg></g><defs></defs></svg><rect width="395.52" height="112.22252626043048" fill="none" stroke="none" visibility="hidden"></rect></g></svg></g></svg>